<svg xmlns="http://www.w3.org/2000/svg" xmlns:xlink="http://www.w3.org/1999/xlink" viewBox="0 0 1366 1366"><defs><style>.cls-1{fill:url(#linear-gradient);}.cls-2{fill:url(#linear-gradient-2);}</style><linearGradient id="linear-gradient" y1="1155.92274" x2="1366" y2="1155.92274" gradientUnits="userSpaceOnUse"><stop offset="0" stop-color="#4fc0da"/><stop offset="0.08387" stop-color="#49b8d6"/><stop offset="0.46881" stop-color="#3396c6"/><stop offset="0.78799" stop-color="#2581bd"/><stop offset="1" stop-color="#207ab9"/></linearGradient><linearGradient id="linear-gradient-2" x1="944.37566" y1="295.90503" x2="1366" y2="295.90503" gradientUnits="userSpaceOnUse"><stop offset="0" stop-color="#4fc0da"/><stop offset="1" stop-color="#207ab9"/></linearGradient></defs><title>bg_1</title><g id="Layer_2" data-name="Layer 2"><g id="Layer_1-2" data-name="Layer 1"><path class="cls-1" d="M0,945.84549c30.45855,56.28186,83.47541,131.72259,168.76778,156.01559,97.94276,27.89611,145.01271-38.2644,261.0261-27.00268C578.5896,1089.3024,579.687,1205.75891,726.561,1233.95505c152.67242,29.30928,215.76678-84.18369,381.30065-66.08736,114.39966,12.50629,201.75,79.55559,258.13831,135.0135V1366H0Z"/><path class="cls-2" d="M951.84607,0c-5.91364,23.17712-11.78,59.11487-3.00031,99.76086,22.24219,102.97107,119.85505,149.92444,207.0207,222.02222,60.80065,50.29041,140.77612,132.87927,210.13354,270.027V0Z"/></g></g></svg>