<svg class='bg_svg' xmlns="http://www.w3.org/2000/svg" xmlns:xlink="http://www.w3.org/1999/xlink" viewBox="0 0 1389.5 791.5">
  <defs>
    <style>
      .cls-1-bg-svg {
        stroke: #ababab;
        stroke-miterlimit: 10;
        stroke-width: 7px;
        fill: url(#linear-gradient-bg-svg);
      }
    </style>
    <linearGradient id="linear-gradient-bg-svg" x1="3.5" y1="395.75" x2="1386" y2="395.75" gradientUnits="userSpaceOnUse">
      <stop offset="0" stop-color="#4fc0da" />
      <stop offset="1" stop-color="#207ab9" />
    </linearGradient>
  </defs>
  <title>Layer 1</title>
  <g>
    <g>
      <path class="cls-1-bg-svg"
        d="M3.5,175.60969c58.3999-5.23021,142.323-1.76814,216.07815,45.0287,24.5801,15.59582,45.32451,32.74589,55.44284,43.87834,39.74225,43.72544,42.85833,87.245,102.61432,132.23391,125.23066,94.28329,229.442-11.2457,394.14255,76.04847,91.88436,48.70032,80.1836,94.06679,204.0738,184.11734,98.27566,71.43243,193.51,109.709,260.09407,131.08355H1386V494.81314c-30.88959.08718-77.85726-3.93644-126.04559-28.01786-88.12635-44.03994-87.54386-108.79193-170.0615-192.12245-11.94243-12.06-130.032-128.25508-292.10565-142.09056C708.792,124.98515,689.6295,154.90424,611.72,142.58865,510.184,126.53829,436.32057,58.64749,389.63965,3.5H3.5Z" />
    </g>
  </g>
</svg>