<svg xmlns="http://www.w3.org/2000/svg" viewBox="0 0 166.56109 232.4916"><title>Layer 1</title><g id="Layer_2" data-name="Layer 2"><g id="Layer_1-2" data-name="Layer 1"><path d="M131.46436,1.64039,67.51411.719C58.47466.58871,48.4223-.83437,39.48866.72356,32.55335,1.933,30.06893,6.891,29.08646,13.36477a410.76448,410.76448,0,0,0-4.38554,60.19839q-.02358,7.37745.20279,14.753c.12539,4.039-.44415,9.12477,1.2048,12.92291,2.718,6.26045,13.53347,6.3194,19.12356,7.42772a573.59262,573.59262,0,0,0,59.79916,8.60689c9.73987.88209,19.49427,1.27353,29.24618,1.94383,7.85606.54,16.97707,1.69284,22.63712,7.79346,6.025,6.494,5.67894,17.309,6.22752,25.606a125.88624,125.88624,0,0,1-.35656,24.64386c-1.05843,8.07315-3.3969,16.11332-8.10164,22.84977-5.62662,8.05645-14.16881,12.89833-23.25642,16.13746-20.80762,7.41655-44.00487,12.70651-66.10221,13.37115-20.87889.628-42.06813-4.04442-58.929-16.83332-1.5381-1.16664-3.03443,1.4373-1.51416,2.59041,30.4179,23.07185,70.50681,18.92177,105.2756,10.09232,15.89766-4.03717,34.28542-7.87136,45.17572-21.266,9.4555-11.6299,11.38375-27.23153,11.21821-41.739a181.85036,181.85036,0,0,0-1.62122-23.116c-.96017-6.82837-3.31944-13.13945-9.12-17.25578-5.41091-3.83979-12.273-5.0359-18.73886-5.64992-9.365-.88933-18.80223-1.04549-28.18127-1.8319a566.79258,566.79258,0,0,1-62.86061-8.836q-3.7996-.75333-7.58878-1.5584c-1.83135-.38937-4.84232-.52479-6.465-1.531C26.395,99.224,27.89379,89.18237,27.781,83.39934q-.30678-15.73615.52846-31.4662c.65332-12.30294,1.79369-24.59844,3.53324-36.7967C32.7713,8.625,34.59037,4.00748,41.99928,3.46271c5.4502-.40075,11.06175.048,16.52183.12667l72.94325,1.051a1.5009,1.5009,0,0,0,0-3Z"/><path d="M1.449,214.995a1.5009,1.5009,0,0,0,0-3,1.5009,1.5009,0,0,0,0,3Z"/></g></g></svg>