<svg xmlns="http://www.w3.org/2000/svg" viewBox="0 0 325.68577 266.61728"><defs><style>.cls-1{fill:#00d01d;}</style></defs><title>Layer 1 (2)</title><g id="Layer_2" data-name="Layer 2"><g id="Layer_1-2" data-name="Layer 1"><path d="M1.449,204.74956a1.5009,1.5009,0,0,0,0-3,1.5009,1.5009,0,0,0,0,3Z"/><path class="cls-1" d="M77.69783,266.61293c52.85707-2.09815,107.28708,4.83365,158.62611-11.318,41.72544-13.12716,81.19231-44.718,88.1101-90.24618,1.46286-9.62756,2.80805-22.29431-3.13831-30.74-6.33032-8.991-19.22661-8.7493-29.0189-9.71662-26.31934-2.59991-52.74763-4.05635-79.01055-7.23146-25.79214-3.1182-52.20114-7.79134-76.39858-17.57224-10.86616-4.39224-19.69778-11.40974-18.45012-24.27687,1.10594-11.40569,8.03678-22.55913,15.4522-30.99417C172.85923.16693,237.64823,7.28116,290.06965,14.1643c5.72513.75174,5.67-8.2555,0-9-48.5928-6.38043-102.66136-12.259-145.1841,17.63113-16.698,11.73737-32.71911,30.0486-35.27838,51.06-1.309,10.74717,2.39824,20.63923,11.05976,27.25713,8.93505,6.82689,20.68222,10.13859,31.29928,13.30355,24.70506,7.3646,50.34867,10.98857,75.94374,13.55232,13.47615,1.34985,26.98068,2.38755,40.47771,3.50062,12.39362,1.02208,25.63274,1.09447,37.78907,3.81053,6.18339,1.38154,9.27125,4.86139,10.064,11.22063a62.64882,62.64882,0,0,1-.72109,17.63849,88.35611,88.35611,0,0,1-11.3867,30.50522c-11.807,19.86631-29.99927,34.709-50.76473,44.47339-54.64054,25.69328-117.38076,16.18178-175.67037,18.49558-5.77207.22913-5.80146,9.23029,0,9Z"/></g></g></svg>