<svg xmlns="http://www.w3.org/2000/svg" viewBox="0 0 77 45"><defs><style>.cls-1{fill:#fff;}</style></defs><title>menu_icon</title><g id="Layer_2" data-name="Layer 2"><g id="Layer_1-2" data-name="Layer 1"><path class="cls-1" d="M6.5,10.5a5,5,0,0,1,0-10h65a5,5,0,0,1,0,10Z"/><path d="M71.5,1a4.5,4.5,0,0,1,0,9H6.5a4.5,4.5,0,0,1,0-9h65m0-1H6.5a5.5,5.5,0,0,0,0,11h65a5.5,5.5,0,0,0,0-11Z"/><path class="cls-1" d="M6.5,27.5a5,5,0,0,1,0-10h65a5,5,0,0,1,0,10Z"/><path d="M71.5,18a4.5,4.5,0,0,1,0,9H6.5a4.5,4.5,0,0,1,0-9h65m0-1H6.5a5.5,5.5,0,0,0,0,11h65a5.5,5.5,0,0,0,0-11Z"/><path class="cls-1" d="M5.5,44.5a5,5,0,0,1,0-10h65a5,5,0,0,1,0,10Z"/><path d="M70.5,35a4.5,4.5,0,0,1,0,9H5.5a4.5,4.5,0,0,1,0-9h65m0-1H5.5a5.5,5.5,0,0,0,0,11h65a5.5,5.5,0,0,0,0-11Z"/></g></g></svg>