<svg preserveAspectRatio='none' id="Layer_1" data-name="Layer 1" xmlns="http://www.w3.org/2000/svg" xmlns:xlink="http://www.w3.org/1999/xlink" viewBox="0 0 987 1097.03858"><defs><style>.cls-1{fill:url(#linear-gradient);}.cls-2{fill:url(#linear-gradient-2);}.cls-3{opacity:0.31;fill:url(#linear-gradient-3);}.cls-4{opacity:0.38;fill:url(#linear-gradient-4);}.cls-5{mask:url(#mask);}.cls-6{opacity:0.17;}.cls-7{fill:url(#linear-gradient-5);}.cls-8{fill:#242424;}.cls-9{fill:url(#linear-gradient-6);}.cls-10{fill:#fff;}.cls-11{fill:url(#linear-gradient-7);}.cls-12{opacity:0.43;fill:url(#linear-gradient-8);}.cls-13{fill:url(#linear-gradient-9);}.cls-14{fill:#424242;}.cls-15{mask:url(#mask-2);}.cls-16{opacity:0.14;}.cls-17{fill:url(#linear-gradient-10);}.cls-18{fill:#0f0200;}.cls-19{opacity:0.39;fill:url(#linear-gradient-11);}.cls-20{fill:url(#linear-gradient-12);}.cls-21{fill:#333;}.cls-22{mask:url(#mask-3);}.cls-23{opacity:0.44;}.cls-24{fill:url(#linear-gradient-13);}</style><linearGradient id="linear-gradient" x1="481" y1="810" x2="481" y2="682" gradientUnits="userSpaceOnUse"><stop offset="0"/><stop offset="0.37264" stop-color="#020202"/><stop offset="0.50689" stop-color="#090909"/><stop offset="0.60258" stop-color="#141414"/><stop offset="0.67999" stop-color="#252525"/><stop offset="0.74626" stop-color="#3b3b3b"/><stop offset="0.80498" stop-color="#575757"/><stop offset="0.8581" stop-color="#777"/><stop offset="0.90691" stop-color="#9d9d9d"/><stop offset="0.95232" stop-color="#c8c8c8"/><stop offset="0.99262" stop-color="#f6f6f6"/><stop offset="1" stop-color="#fff"/></linearGradient><linearGradient id="linear-gradient-2" x1="869" y1="1131" x2="869" y2="747" gradientUnits="userSpaceOnUse"><stop offset="0.5628"/><stop offset="0.72572" stop-color="#020202"/><stop offset="0.78442" stop-color="#090909"/><stop offset="0.82625" stop-color="#141414"/><stop offset="0.86009" stop-color="#252525"/><stop offset="0.88907" stop-color="#3b3b3b"/><stop offset="0.91474" stop-color="#575757"/><stop offset="0.93796" stop-color="#777"/><stop offset="0.9593" stop-color="#9d9d9d"/><stop offset="0.97916" stop-color="#c8c8c8"/><stop offset="0.99677" stop-color="#f6f6f6"/><stop offset="1" stop-color="#fff"/></linearGradient><linearGradient id="linear-gradient-3" x1="146" y1="1038" x2="146" y2="721" gradientUnits="userSpaceOnUse"><stop offset="0.48551"/><stop offset="0.67723" stop-color="#020202"/><stop offset="0.7463" stop-color="#090909"/><stop offset="0.79553" stop-color="#141414"/><stop offset="0.83536" stop-color="#252525"/><stop offset="0.86945" stop-color="#3b3b3b"/><stop offset="0.89966" stop-color="#575757"/><stop offset="0.927" stop-color="#777"/><stop offset="0.95211" stop-color="#9d9d9d"/><stop offset="0.97547" stop-color="#c8c8c8"/><stop offset="0.9962" stop-color="#f6f6f6"/><stop offset="1" stop-color="#fff"/></linearGradient><linearGradient id="linear-gradient-4" x1="217" y1="650.56383" x2="639" y2="650.56383" gradientUnits="userSpaceOnUse"><stop offset="0" stop-color="#333"/><stop offset="1" stop-color="#1a1a1a"/></linearGradient><mask id="mask" x="261" y="660.06383" width="400" height="128" maskUnits="userSpaceOnUse"><g transform="translate(-20 -21.93617)"><rect class="cls-1" x="281" y="682" width="400" height="128"/></g></mask><linearGradient id="linear-gradient-5" x1="640.00111" y1="514.75578" x2="350.90755" y2="675.00296" gradientTransform="matrix(1, 0, 0, -1, 10.35179, 1314.29161)" gradientUnits="userSpaceOnUse"><stop offset="0" stop-color="#9f9f9f"/><stop offset="0.01333" stop-color="#999"/><stop offset="0.1192" stop-color="#717171"/><stop offset="0.23168" stop-color="#4e4e4e"/><stop offset="0.35017" stop-color="#313131"/><stop offset="0.47662" stop-color="#1c1c1c"/><stop offset="0.61487" stop-color="#0c0c0c"/><stop offset="0.77377" stop-color="#030303"/><stop offset="1"/></linearGradient><linearGradient id="linear-gradient-6" x1="954.07078" y1="126.95268" x2="167.13324" y2="563.15929" gradientTransform="matrix(1, 0, 0, 1, 0, 0)" xlink:href="#linear-gradient-5"/><linearGradient id="linear-gradient-7" x1="640.00518" y1="576.75182" x2="350.91159" y2="736.99902" gradientTransform="matrix(1, 0, 0, 1, 0, 0)" xlink:href="#linear-gradient-5"/><linearGradient id="linear-gradient-8" x1="629" y1="719.06383" x2="937" y2="719.06383" xlink:href="#linear-gradient-4"/><linearGradient id="linear-gradient-9" x1="1055.10226" y1="473.9263" x2="696.53955" y2="672.68085" gradientTransform="matrix(1, 0, 0, 1, 0, 0)" xlink:href="#linear-gradient-5"/><mask id="mask-2" x="677" y="724.97839" width="344" height="384.08543" maskUnits="userSpaceOnUse"><g transform="translate(-20 -21.93617)"><rect class="cls-2" x="697" y="747" width="344" height="384"/></g></mask><linearGradient id="linear-gradient-10" x1="1168.95" y1="103.6745" x2="810.3873" y2="302.42906" gradientTransform="matrix(0.9997, 0.02469, 0.02469, -0.9997, -129.23382, 1098.419)" xlink:href="#linear-gradient-5"/><linearGradient id="linear-gradient-11" x1="0" y1="697.56383" x2="179" y2="697.56383" xlink:href="#linear-gradient-4"/><linearGradient id="linear-gradient-12" x1="241.42817" y1="521.34163" x2="43.57494" y2="631.01347" gradientTransform="matrix(1, 0, 0, 1, 0, 0)" xlink:href="#linear-gradient-5"/><mask id="mask-3" x="18" y="699.06383" width="216" height="317" maskUnits="userSpaceOnUse"><g transform="translate(-20 -21.93617)"><rect class="cls-3" x="38" y="721" width="216" height="317"/></g></mask><linearGradient id="linear-gradient-13" x1="242.42817" y1="221.34163" x2="44.57494" y2="331.01347" gradientTransform="matrix(1, 0, 0, -1, 0, 1148.42743)" xlink:href="#linear-gradient-5"/></defs><title>screens</title><g id="computer"><ellipse class="cls-4" cx="428" cy="650.56383" rx="211" ry="12.5"/><g class="cls-5"><g id="reflection" class="cls-6"><path class="cls-7" d="M646.59792,806.31l16.67394-66.61916c4.54824-23.93288-5.68534-35.379-23.87836-35.379l-142.133-10.40553c-16.11135-4.01215-32.31735-2.929-48.89375,0l-114.84344,9.36509-11.61943,7.01636v1l92.351-1.773,86.41685,13.52724,63.67558-2.08115,70.119,85.34919Z" transform="translate(-20 -21.93617)"/><path class="cls-8" d="M493.709,805.13232l10.05151-45.84467c3.76734-14.57715-2.66646-25.70838-23.42775-32-38.46968-6.45758-87.02219-11.27733-157.37644-14.43327a1.50594,1.50594,0,1,1-.12207-3.00828c37.72443-3.85427,138.44969-11.81854,150.80486-11.55845l169.57215,13.99992c13.41008,3.94927,19.3044,12.03283,14.50289,26l-16.73406,68" transform="translate(-20 -21.93617)"/></g></g><path class="cls-9" d="M861.08157,567.15876l-680.46131,5.71016a13.56092,13.56092,0,0,1-13.55576-15.3527l54.66706-410.0029a13.10706,13.10706,0,0,1,10.72075-11.17648L880.90989,22.23873A19.601,19.601,0,0,1,903.8873,42.43485L880.86063,548.10049A19.96728,19.96728,0,0,1,861.08157,567.15876Z" transform="translate(-20 -21.93617)"/><path class="cls-8" d="M855.08157,568.15876l-680.46131,5.71016a13.56092,13.56092,0,0,1-13.55576-15.3527l54.66706-410.0029a13.10706,13.10706,0,0,1,10.72075-11.17648L874.90989,23.23873A19.601,19.601,0,0,1,897.8873,43.43485L874.86063,549.10049A19.96728,19.96728,0,0,1,855.08157,568.15876Z" transform="translate(-20 -21.93617)"/><g id="computer_screen"><polygon class="cls-10" points="838 501.064 158 525.064 205 140.064 860 32.064 838 501.064"/></g><path class="cls-11" d="M636.25017,569.9776l16.674,66.61915c4.54826,23.93288-5.68531,35.379-23.87834,35.379l-142.133,10.4056c-16.11135,4.01216-32.31735,2.929-48.89375,0l-114.84344-9.365L311.55619,666v-1l92.351,1.773L490.324,653.24571l63.67557,2.08112,70.11894-85.34923Z" transform="translate(-20 -21.93617)"/><path class="cls-8" d="M483.36122,571.15533,493.41276,617c3.76735,14.57715-2.66645,25.70837-23.42773,32-38.46968,6.45759-87.02219,11.27737-157.37644,14.43334a1.50594,1.50594,0,1,0-.12207,3.00828C350.211,670.29587,450.93622,678.26009,463.29139,678l169.57214-14c13.41008-3.94928,19.3044-12.03284,14.50288-26l-16.7341-68" transform="translate(-20 -21.93617)"/></g><g id="tab"><ellipse class="cls-12" cx="783" cy="719.06383" rx="154" ry="6"/><path class="cls-13" d="M949.96615,743H741.93609a10.9923,10.9923,0,0,1-10.756-12.99082l57.0914-315.89145a10.96978,10.96978,0,0,1,9.33259-8.94921l197.037-26.07227a10.97553,10.97553,0,0,1,12.25685,12.406L960.79959,733.466A10.961,10.961,0,0,1,949.96615,743Z" transform="translate(-20 -21.93617)"/><path class="cls-14" d="M946.24633,741h-204.496A10.93949,10.93949,0,0,1,731.177,728.00918l56.12152-315.89145a10.8676,10.8676,0,0,1,9.174-8.94921l193.6897-26.07227a10.88545,10.88545,0,0,1,12.04863,12.406L956.89572,731.466A10.83933,10.83933,0,0,1,946.24633,741Z" transform="translate(-20 -21.93617)"/><g class="cls-15"><g id="reflection-2" data-name="reflection" class="cls-16"><path class="cls-17" d="M943.46063,752.05526,735.494,746.918a10.9923,10.9923,0,0,0-11.07354,12.72124l49.27308,317.205a10.96976,10.96976,0,0,0,9.10875,9.17694l196.333,30.93013a10.97552,10.97552,0,0,0,12.55948-12.09958l-37.6395-342.99782A10.961,10.961,0,0,0,943.46063,752.05526Z" transform="translate(-20 -21.93617)"/><path class="cls-14" d="M939.69255,753.96279l-204.43366-5.05A10.9395,10.9395,0,0,0,724.368,761.63853l48.3035,317.181a10.8676,10.8676,0,0,0,8.95025,9.173l192.98678,30.84747a10.88545,10.88545,0,0,0,12.35132-12.10473L950.10326,763.75685A10.83934,10.83934,0,0,0,939.69255,753.96279Z" transform="translate(-20 -21.93617)"/></g></g><path id="tab_screen" class="cls-10" d="M939.81668,723h-187.976a9.879,9.879,0,0,1-9.71914-11.649l51.58781-283.264a9.879,9.879,0,0,1,8.43293-8.02487l178.04269-23.37934a9.879,9.879,0,0,1,11.07529,11.12466l-41.65445,306.6433A9.879,9.879,0,0,1,939.81668,723Z" transform="translate(-20 -21.93617)"/><circle class="cls-18" cx="865" cy="379.06383" r="5"/></g><g id="mobile"><ellipse class="cls-19" cx="89.5" cy="697.56383" rx="89.5" ry="4.5"/><path class="cls-20" d="M188.50126,721.99622l-85.98423-2.209C93.87131,719.56514,87,713.63164,87,706.388V440.91349c0-8.69741,9.73686-15.09221,19.82332-13.01921l85.98423,17.67179C199.96637,447.03737,205,452.41232,205,458.58527v245.5751C205,711.72512,197.53026,722.22818,188.50126,721.99622Z" transform="translate(-20 -21.93617)"/><path class="cls-21" d="M189.35172,720.92212l-81.55206-2.209c-8.20007-.22211-14.71719-6.15561-14.71719-13.39925V439.83939c0-8.69741,9.235-15.09221,18.8015-13.01921L193.436,444.492c6.78981,1.47131,11.564,6.84626,11.564,13.01921V707.52288C205,715.08762,197.9153,721.15408,189.35172,720.92212Z" transform="translate(-20 -21.93617)"/><g class="cls-22"><g id="reflection-3" data-name="reflection" class="cls-23"><path class="cls-24" d="M189.50126,726.4312l-85.98423,2.209C94.87131,728.86229,88,734.79579,88,742.03942v265.47452c0,8.69741,9.73686,15.09221,19.82332,13.0192l85.98423-17.67178C200.96637,1001.39006,206,996.0151,206,989.84216V744.26705C206,736.7023,198.53026,726.19924,189.50126,726.4312Z" transform="translate(-20 -21.93617)"/><path class="cls-21" d="M190.35172,727.5053l-81.55206,2.209c-8.20007.22211-14.71719,6.15561-14.71719,13.39924V1008.588c0,8.69741,9.235,15.09221,18.8015,13.0192l81.55206-17.67178c6.78981-1.4713,11.564-6.84625,11.564-13.0192V740.90455C206,733.3398,198.9153,727.27334,190.35172,727.5053Z" transform="translate(-20 -21.93617)"/></g></g><polygon id="mobile_screen" class="cls-10" points="180.134 656.446 77.948 654.298 77.948 444.848 180.134 462.034 180.134 656.446"/><ellipse cx="130.25773" cy="432.49582" rx="3.64948" ry="4.83345"/></g></svg>