<?xml version="1.0" encoding="utf-8"?>
<!-- Generator: Adobe Illustrator 22.1.0, SVG Export Plug-In . SVG Version: 6.00 Build 0)  -->
<svg version="1.1" id="Layer_1" xmlns="http://www.w3.org/2000/svg" xmlns:xlink="http://www.w3.org/1999/xlink" x="0px" y="0px"
	 viewBox="0 0 987 725.1" style="enable-background:new 0 0 987 725.1;" xml:space="preserve">
<style type="text/css">
	.st0{opacity:0.38;fill:url(#SVGID_1_);enable-background:new    ;}
	.st1{fill:url(#SVGID_2_);}
	.st2{fill:#242424;}
	.st3{fill:#FFFFFF;}
	.st4{fill:url(#SVGID_3_);}
	.st5{opacity:0.43;fill:url(#SVGID_4_);enable-background:new    ;}
	.st6{fill:url(#SVGID_5_);}
	.st7{fill:#424242;}
	.st8{fill:#0F0200;}
	.st9{opacity:0.39;fill:url(#SVGID_6_);enable-background:new    ;}
	.st10{fill:url(#SVGID_7_);}
	.st11{fill:#333333;}
</style>
<title>screens_1</title>
<g id="Layer_2_1_">
	<g id="Layer_1-2">
		<g id="computer">
			
				<linearGradient id="SVGID_1_" gradientUnits="userSpaceOnUse" x1="217" y1="690.6" x2="639" y2="690.6" gradientTransform="matrix(1 0 0 1 0 -40)">
				<stop  offset="0" style="stop-color:#333333"/>
				<stop  offset="1" style="stop-color:#1A1A1A"/>
			</linearGradient>
			<ellipse class="st0" cx="428" cy="650.6" rx="211" ry="12.5"/>
			
				<linearGradient id="SVGID_2_" gradientUnits="userSpaceOnUse" x1="934.0627" y1="145.0116" x2="147.1217" y2="581.2202" gradientTransform="matrix(1 0 0 1 0 -40)">
				<stop  offset="0" style="stop-color:#9F9F9F"/>
				<stop  offset="1.333000e-02" style="stop-color:#999999"/>
				<stop  offset="0.1192" style="stop-color:#717171"/>
				<stop  offset="0.2317" style="stop-color:#4E4E4E"/>
				<stop  offset="0.3502" style="stop-color:#313131"/>
				<stop  offset="0.4766" style="stop-color:#1C1C1C"/>
				<stop  offset="0.6149" style="stop-color:#0C0C0C"/>
				<stop  offset="0.7738" style="stop-color:#030303"/>
				<stop  offset="1" style="stop-color:#000000"/>
			</linearGradient>
			<path class="st1" d="M841.1,545.2l-680.5,5.7c-7.5,0.1-13.6-6-13.7-13.4c0-0.6,0-1.3,0.1-1.9l54.7-410
				c0.8-5.7,5.1-10.2,10.7-11.2L860.9,0.3c10.7-1.9,20.8,5.2,22.7,15.9c0.2,1.4,0.3,2.9,0.3,4.3l-23,505.7
				C860.4,536.8,851.7,545.1,841.1,545.2z"/>
			<path class="st2" d="M835.1,546.2l-680.5,5.7c-7.5,0.1-13.6-6-13.7-13.4c0-0.6,0-1.3,0.1-1.9l54.7-410
				c0.8-5.7,5.1-10.2,10.7-11.2L854.9,1.3c10.7-1.9,20.8,5.2,22.7,15.9c0.2,1.4,0.3,2.9,0.3,4.3l-23,505.7
				C854.4,537.8,845.7,546.1,835.1,546.2z"/>
			<g id="computer_screen">
				<polygon id="computer_x5F_screen" class="st3" points="838,501.1 158,525.1 205,140.1 860,32.1 				"/>
			</g>
			
				<linearGradient id="SVGID_3_" gradientUnits="userSpaceOnUse" x1="620.0597" y1="594.7827" x2="331.0475" y2="754.9848" gradientTransform="matrix(1 0 0 1 0 -40)">
				<stop  offset="0" style="stop-color:#9F9F9F"/>
				<stop  offset="1.333000e-02" style="stop-color:#999999"/>
				<stop  offset="0.1192" style="stop-color:#717171"/>
				<stop  offset="0.2317" style="stop-color:#4E4E4E"/>
				<stop  offset="0.3502" style="stop-color:#313131"/>
				<stop  offset="0.4766" style="stop-color:#1C1C1C"/>
				<stop  offset="0.6149" style="stop-color:#0C0C0C"/>
				<stop  offset="0.7738" style="stop-color:#030303"/>
				<stop  offset="1" style="stop-color:#000000"/>
			</linearGradient>
			<path class="st4" d="M616.3,548l16.7,66.6c4.5,23.9-5.7,35.4-23.9,35.4L467,660.4c-16.1,4-32.3,2.9-48.9,0L303.3,651l-11.6-7v-1
				l92.4,1.8l86.4-13.5l63.7,2.1l70.1-85.3L616.3,548z"/>
			<path class="st2" d="M463.4,549.2l10.1,45.8c3.8,14.6-2.7,25.7-23.4,32c-38.5,6.5-87,11.3-157.4,14.4c-0.8-0.1-1.5,0.6-1.6,1.4
				c-0.1,0.8,0.6,1.5,1.4,1.6h0.1c37.7,3.9,138.4,11.8,150.8,11.6L613,642c13.4-3.9,19.3-12,14.5-26l-16.7-68"/>
		</g>
		<g id="tab">
			
				<linearGradient id="SVGID_4_" gradientUnits="userSpaceOnUse" x1="629" y1="759.1" x2="937" y2="759.1" gradientTransform="matrix(1 0 0 1 0 -40)">
				<stop  offset="0" style="stop-color:#333333"/>
				<stop  offset="1" style="stop-color:#1A1A1A"/>
			</linearGradient>
			<ellipse class="st5" cx="783" cy="719.1" rx="154" ry="6"/>
			
				<linearGradient id="SVGID_5_" gradientUnits="userSpaceOnUse" x1="1035.1458" y1="492.0771" x2="676.6055" y2="690.8192" gradientTransform="matrix(1 0 0 1 0 -40)">
				<stop  offset="0" style="stop-color:#9F9F9F"/>
				<stop  offset="1.333000e-02" style="stop-color:#999999"/>
				<stop  offset="0.1192" style="stop-color:#717171"/>
				<stop  offset="0.2317" style="stop-color:#4E4E4E"/>
				<stop  offset="0.3502" style="stop-color:#313131"/>
				<stop  offset="0.4766" style="stop-color:#1C1C1C"/>
				<stop  offset="0.6149" style="stop-color:#0C0C0C"/>
				<stop  offset="0.7738" style="stop-color:#030303"/>
				<stop  offset="1" style="stop-color:#000000"/>
			</linearGradient>
			<path class="st6" d="M930,721.1H722c-6.1,0-11-5-10.9-11c0-0.7,0.1-1.3,0.2-1.9l57.1-315.9c0.8-4.7,4.6-8.3,9.3-8.9l197-26.1
				c6-0.8,11.5,3.5,12.3,9.5c0.1,1,0.1,1.9,0,2.9l-46.1,342C940.1,717,935.5,721,930,721.1z"/>
			<path class="st7" d="M926.2,719.1H721.8c-6-0.1-10.9-5.1-10.8-11.1c0-0.6,0.1-1.3,0.2-1.9l56.1-315.9c0.8-4.7,4.5-8.3,9.2-8.9
				l193.7-26.1c6-0.7,11.4,3.6,12.1,9.5c0.1,1,0.1,1.9,0,2.9l-45.3,342C936.2,714.9,931.7,719,926.2,719.1z"/>
			<path id="tab_screen" class="st3" d="M919.8,701.1h-188c-5.5,0-9.9-4.4-9.9-9.9c0-0.6,0.1-1.2,0.2-1.8l51.6-283.3
				c0.8-4.2,4.2-7.5,8.4-8l178-23.4c5.4-0.7,10.4,3.1,11.1,8.5c0.1,0.9,0.1,1.7,0,2.6l-41.7,306.6
				C928.9,697.4,924.8,701.1,919.8,701.1z"/>
			<circle class="st8" cx="865" cy="379.1" r="5"/>
		</g>
		<g id="mobile">
			
				<linearGradient id="SVGID_6_" gradientUnits="userSpaceOnUse" x1="0" y1="737.6" x2="179" y2="737.6" gradientTransform="matrix(1 0 0 1 0 -40)">
				<stop  offset="0" style="stop-color:#333333"/>
				<stop  offset="1" style="stop-color:#1A1A1A"/>
			</linearGradient>
			<ellipse class="st9" cx="89.5" cy="697.6" rx="89.5" ry="4.5"/>
			
				<linearGradient id="SVGID_7_" gradientUnits="userSpaceOnUse" x1="221.418" y1="539.4245" x2="23.57" y2="649.0934" gradientTransform="matrix(1 0 0 1 0 -40)">
				<stop  offset="0" style="stop-color:#9F9F9F"/>
				<stop  offset="1.333000e-02" style="stop-color:#999999"/>
				<stop  offset="0.1192" style="stop-color:#717171"/>
				<stop  offset="0.2317" style="stop-color:#4E4E4E"/>
				<stop  offset="0.3502" style="stop-color:#313131"/>
				<stop  offset="0.4766" style="stop-color:#1C1C1C"/>
				<stop  offset="0.6149" style="stop-color:#0C0C0C"/>
				<stop  offset="0.7738" style="stop-color:#030303"/>
				<stop  offset="1" style="stop-color:#000000"/>
			</linearGradient>
			<path class="st10" d="M168.5,700.1l-86-2.2c-8.6-0.2-15.5-6.2-15.5-13.4V419c0-8.7,9.7-15.1,19.8-13l86,17.7
				c7.2,1.5,12.2,6.8,12.2,13v245.6C185,689.8,177.5,700.3,168.5,700.1z"/>
			<path class="st11" d="M169.4,699l-81.6-2.2c-8.2-0.2-14.7-6.2-14.7-13.4V417.9c0-8.7,9.2-15.1,18.8-13l81.6,17.7
				c6.8,1.5,11.6,6.8,11.6,13v250C185,693.2,177.9,699.2,169.4,699z"/>
			<polygon id="mobile_screen" class="st3" points="180.1,656.4 77.9,654.3 77.9,444.8 180.1,462 			"/>
			<ellipse cx="130.3" cy="432.5" rx="3.6" ry="4.8"/>
		</g>
	</g>
</g>
</svg>
