<svg xmlns="http://www.w3.org/2000/svg" xmlns:xlink="http://www.w3.org/1999/xlink" viewBox="0 0 552.42021 334.28363">
  <defs>
    <style>
      .cls-1,
      .cls-2 {
        fill: none;
        stroke-miterlimit: 10;
        stroke-width: 5px;
      }

      .cls-1 {
        stroke: url(#linear-gradient);
        stroke-dasharray: 1390;
        stroke-dashoffset: 1390;
        animation: dash 5s linear forwards;
      }

      .cls-2 {
        stroke: url(#linear-gradient-2);
        stroke-dasharray: 2200;
        stroke-dashoffset: 2200;
        animation: dash 5s linear forwards;

      }

      @keyframes dash {
        to {
          stroke-dashoffset: 0;
        }
      }
    </style>
    <linearGradient id="linear-gradient" x1="116.9424" y1="298.16549" x2="116.9424" gradientUnits="userSpaceOnUse">
      <stop offset="0" stop-color="#662d91" />
      <stop offset="0.10559" stop-color="#5453a5" />
      <stop offset="0.26965" stop-color="#3a87c0" />
      <stop offset="0.43097" stop-color="#25b2d7" />
      <stop offset="0.58605" stop-color="#15d3e8" />
      <stop offset="0.73313" stop-color="#09ebf5" />
      <stop offset="0.86907" stop-color="#02fafc" />
      <stop offset="0.98309" stop-color="aqua" />
    </linearGradient>
    <linearGradient id="linear-gradient-2" x1="392.71268" y1="334.28363" x2="392.71268" y2="1.30675"
      xlink:href="#linear-gradient" />
  </defs>
  <title>text</title>
  <g id="Layer_2" data-name="Layer 2">
    <g id="Layer_1-2" data-name="Layer 1">
      <path class="cls-1"
        d="M205.53139,86.90744h11l5-40a270.71628,270.71628,0,0,1,9-37,90.26516,90.26516,0,0,1-26-5c-23.8865-4.23346-46.47811-3.27006-67,6-28.83453,12.00627-48.03442,36.94894-54,70,0,8-2,30,23,57,21.24231,21.56256,41.46964,42.5238,44,53,9.59494,14.26935,7.92536,31.63687-1,51-17.01614,26.6843-39.78137,39.78476-68,40-22.47567,1.26679-37.82479-9.36981-43-37l-4-12c-8-12-22-10-28,0-6.59587,10.5965-4,21,0,28,9.6569,16.93927,25.70289,25.879,44,32,21.45749,4.90994,40.61393,2.65433,59-2,19.55085-5.35647,35.21662-14.83386,50-27q20.569-17.58087,29-47c3.47684-17.006,2.44526-34.00754-8-51-5-11-19.92572-28.81436-49-58-15-15-23-37-8-63,10.58576-15.19089,23.35264-25.08981,39-28q30-6,42,17C209.53139,41.90744,207.53139,67.90744,205.53139,86.90744Z" />
      <path class="cls-2"
        d="M531.53139,6.90744l-1,5c-20.91864,4.09482-37.06469,13.75777-51,26-38.66906,35.06648-70.277,58.84013-99,78,24,32,24,46,42,97,10.81,36.04819,22.03449,64.66617,34,80,11.85376,15.034,24.18061,23.45816,37,25,12.71869,1.66644,20.68427-4.09592,26-14,2.20453-5.35333,6-15,7-17,11-12,26-2,23,10-.2525,5.73264-4.98419,12.5817-12,20-6.97131,6.18527-16.21118,11.09241-29,14-18.85107,2.63068-34.41674-.84305-48-8-22-13-36.77636-32.9975-47-54-13.25732-31.56753-23.70135-60.76605-33-89-9-24-19.99688-41.36218-31-55-13.027,48.03046-27,103-32,124,12.72278,6.09314,25.0243,7.99945,35,6l-3,12c-10,1-28-3-41-3-10.28991-1.23486-21.37091-.35129-33,2l-32,5,2-11,13-4c12.42627-3.4884,20.81092-10.77356,25-22,13.00751-34.163,35.69892-122.865,59-215-22.83026,1.29039-42.6582,6.10121-59,15-16.30264,9.537-26.82775,20.43312-26,34-.003,4.65892,4.04465,10.61211,9,19,5,16-10,28-21,19-7.33865-4.37314-10.34317-14.11365-10-28,3.62366-22.85409,17.43964-41.92244,42-57,20-10,49-15,68-16l39-1c-10.82531,24.30605-21.45764,64.456-32,112,30-13,75.67872-49.52534,114-88,4.53046-3.83029,4.6435-6.8311-5-8l-23-1,4-14C470.69961,9.99666,500.5823,10.02568,531.53139,6.90744Z" />
    </g>
  </g>
</svg>